Genre:Animation | Family
 Language:English
 IMDb:http://www.imdb.com/title/tt1620449/
 Source:.BluRay.x264-ALLiANCE
 Subtitles:Romana


 Format : MPEG-4
 Format profile : Base Media
 Codec ID : isom
 File size : 2.20 GiB
 Duration : 1h 33mn
 Overall bit rate : 3 385 Kbps


 Video
 Format profile : High@L4.1
 Format settings, CABAC : Yes
 Format settings, ReFrames : 3 frames
 Codec ID : avc1
 Codec ID/Info : Advanced Video Coding
 Duration : 1h 33mn
 Bit rate mode : Variable
 Bit rate : 3 000 Kbps
 Maximum bit rate : 20.5 Mbps
 Width : 1 280 pixels
 Height : 544 pixels
 Display aspect ratio : 2.35:1
 Frame rate mode : Constant
 Frame rate : 23.976 fps
 Color space : YUV
 Chroma subsampling : 4:2:0
 Bit depth : 8 bits
 Scan type : Progressive
 Bits/(Pixel*Frame) : 0.180
 Stream size : 1.91 GiB (87%)
 Writing library : x264


 Audio
 ID : 2
 Format : AAC
 Format/Info : Advanced Audio Codec
 Format version : Version 4
 Format profile : LC
 Format settings, SBR : No
 Codec ID : 40
 Duration : 1h 33mn
 Bit rate mode : Variable
 Bit rate : 447 Kbps
 Maximum bit rate : 537 Kbps
 Channel(s) : 6 channels
 Channel positions : Front: L C R, Side: L R, LFE
 Sampling rate : 48.0 KHz
 Stream size : 297 MiB (13%)


 Plot:
 A group of animals waiting for the annual flood they rely on for food and water discover that the humans...







----------------------------------                
http://thepiratebay.org/user/hiest
----------------------------------






Screenshots:
 
http://leetleech.org/images/01776992006176539336.png
 
http://leetleech.org/images/93820867600277952460.png
 
http://leetleech.org/images/40142844023746016014.png
 
http://leetleech.org/images/88022700255195810401.png
 
http://leetleech.org/images/43176874632812124434.png